<svg width="21" height="21" viewBox="0 0 21 21" fill="none" xmlns="http://www.w3.org/2000/svg">
<path d="M10.5391 0.513184C5.03906 0.513184 0.539062 5.01318 0.539062 10.5132C0.539062 16.0132 5.03906 20.5132 10.5391 20.5132C16.0391 20.5132 20.5391 16.0132 20.5391 10.5132C20.5391 5.01318 16.0391 0.513184 10.5391 0.513184ZM10.5391 18.5132C6.12906 18.5132 2.53906 14.9232 2.53906 10.5132C2.53906 6.10318 6.12906 2.51318 10.5391 2.51318C14.9491 2.51318 18.5391 6.10318 18.5391 10.5132C18.5391 14.9232 14.9491 18.5132 10.5391 18.5132ZM11.0391 5.51318H9.53906V11.5132L14.7391 14.7132L15.5391 13.4132L11.0391 10.7132V5.51318Z" fill="#EE0033"/>
</svg>
