<svg width="25" height="25" viewBox="0 0 25 25" fill="none" xmlns="http://www.w3.org/2000/svg">
<path d="M21.5391 3.51318H3.53906C2.43906 3.51318 1.53906 4.41318 1.53906 5.51318V7.51318C1.53906 8.06318 1.98906 8.51318 2.53906 8.51318C3.08906 8.51318 3.53906 8.06318 3.53906 7.51318V6.51318C3.53906 5.96318 3.98906 5.51318 4.53906 5.51318H20.5391C21.0891 5.51318 21.5391 5.96318 21.5391 6.51318V18.5132C21.5391 19.0632 21.0891 19.5132 20.5391 19.5132H15.5391C14.9891 19.5132 14.5391 19.9632 14.5391 20.5132C14.5391 21.0632 14.9891 21.5132 15.5391 21.5132H21.5391C22.6391 21.5132 23.5391 20.6132 23.5391 19.5132V5.51318C23.5391 4.41318 22.6391 3.51318 21.5391 3.51318ZM2.67906 14.6032C2.07906 14.5032 1.53906 14.9932 1.53906 15.6032C1.53906 16.0932 1.89906 16.5032 2.38906 16.5832C4.46906 16.9432 6.10906 18.5832 6.46906 20.6632C6.54906 21.1532 6.95906 21.5132 7.44906 21.5132C8.05906 21.5132 8.53906 20.9732 8.44906 20.3732C7.96906 17.4132 5.62906 15.0832 2.67906 14.6032ZM1.53906 18.5132V21.5132H4.53906C4.53906 19.8532 3.19906 18.5132 1.53906 18.5132ZM2.63906 10.5632C2.04906 10.5132 1.53906 10.9732 1.53906 11.5632C1.53906 12.0732 1.91906 12.5032 2.41906 12.5532C6.68906 12.9632 10.0891 16.3632 10.4991 20.6332C10.5491 21.1332 10.9791 21.5032 11.4891 21.5032C12.0891 21.5032 12.5491 20.9832 12.4891 20.3932C11.9591 15.2032 7.82906 11.0832 2.63906 10.5632Z" fill="#EE0033"/>
</svg>
