<svg width="23" height="23" viewBox="0 0 23 23" fill="none" xmlns="http://www.w3.org/2000/svg">
<path d="M18.9792 12.5032L18.9692 12.5232C19.0092 12.1932 19.0492 11.8532 19.0492 11.5132C19.0492 11.1732 19.0192 10.8532 18.9792 10.5232L18.9892 10.5432L21.4292 8.62318L18.9992 4.40318L16.1292 5.56318L16.1392 5.57318C15.6192 5.17318 15.0492 4.83318 14.4292 4.57318H14.4392L13.9792 1.51318H9.10918L8.66918 4.58318H8.67918C8.05918 4.84318 7.48918 5.18318 6.96918 5.58318L6.97918 5.57318L4.09918 4.40318L1.65918 8.62318L4.09918 10.5432L4.10918 10.5232C4.06918 10.8532 4.03918 11.1732 4.03918 11.5132C4.03918 11.8532 4.06918 12.1932 4.11918 12.5232L4.10918 12.5032L2.00918 14.1532L1.67918 14.4132L4.10918 18.6132L6.98918 17.4632L6.96918 17.4232C7.49918 17.8332 8.06918 18.1732 8.69918 18.4332H8.66918L9.11918 21.5132H13.9692C13.9692 21.5132 13.9992 21.3332 14.0292 21.0932L14.4092 18.4432H14.3992C15.0192 18.1832 15.5992 17.8432 16.1292 17.4332L16.1092 17.4732L18.9892 18.6232L21.4192 14.4232C21.4192 14.4232 21.2792 14.3032 21.0892 14.1632L18.9792 12.5032V12.5032ZM11.5392 15.0132C9.60918 15.0132 8.03918 13.4432 8.03918 11.5132C8.03918 9.58318 9.60918 8.01318 11.5392 8.01318C13.4692 8.01318 15.0392 9.58318 15.0392 11.5132C15.0392 13.4432 13.4692 15.0132 11.5392 15.0132Z" stroke="#EE0033" stroke-width="1.7" stroke-linejoin="round"/>
</svg>
